:SAMPLES-PER-SECOND 30
:FULLY-SPECIFIED
:DEGREES
92
root  3.06283 37.3164 -27.3092 44.5967 -79.3288 -52.9934
RightUpLeg  -7.22364 -7.10169 0.515672
RightLeg  34.9382 -5.28392 -4.21156
RightFoot  -12.2981 0.0281194 14.3935
RightToes  -5.28226e-011 1.30204e-014 -6.03759e-014
Spine  19.2791 3.79695 3.46898
Spine1  11.4015 3.79245 4.46248
HEad  -25.8524 -6.81817 2.12227
LeftShoulder1  2.869 -7.52139 -19.5467
LeftArm  26.1302 12.9528 -59.0163
LeftForeArm  14.6014 -26.3285 -4.87237
LeftHand  -1.06722 -2.82801 15.3292
RightShoulder  0.888529 1.23608 11.5517
RightArm  -33.0279 32.2046 35.2922
RightForeArm  -162.776 59.5517 165.558
RightHand  -2.23126 0.147963 -44.8308
LeftUpLeg  -45.785 -5.23739 -4.63934
LeftLeg  107.056 -1.16839 2.64499
LeftFoot  2.52155 1.11405 -9.27439
LeftToes  -2.42178e-010 -1.66495e-011 -2.88221e-011
93
root  3.16411 38.7517 -27.3158 47.07 -81.3183 -55.2646
RightUpLeg  -4.02693 -5.37291 -0.572565
RightLeg  26.2077 -6.08148 -3.47385
RightFoot  -3.32893 -1.09249 15.1868
RightToes  -5.28226e-011 1.30204e-014 -6.03759e-014
Spine  22.6196 4.82437 4.57834
Spine1  6.29266 6.1012 0.184283
HEad  -24.4906 -9.90242 3.2897
LeftShoulder1  3.25582 -8.6468 -20.3764
LeftArm  28.4818 19.3765 -56.9101
LeftForeArm  5.27423 -26.9349 -5.51455
LeftHand  -0.423942 -4.59141 4.82634
RightShoulder  0.187106 -2.04118 4.50606
RightArm  -53.6447 38.2491 20.1251
RightForeArm  -171.909 62.2896 163.15
RightHand  -2.10173 -0.25147 -44.9267
LeftUpLeg  -46.8722 -5.28019 -6.67803
LeftLeg  101.412 -2.1179 7.82472
LeftFoot  3.27214 1.22008 -9.66536
LeftToes  -2.42178e-010 -1.66495e-011 -2.88221e-011
94
root  3.26905 39.9667 -27.1355 54.1466 -82.1235 -61.7496
RightUpLeg  -2.48238 -4.01387 -0.697028
RightLeg  19.3959 -6.29856 -2.71063
RightFoot  6.91825 -2.339 14.8461
RightToes  -5.28226e-011 1.30204e-014 -6.03759e-014
Spine  25.5956 5.00512 8.33662
Spine1  0.400281 8.01279 -5.25466
HEad  -20.5476 -12.4042 2.22447
LeftShoulder1  3.65766 -10.2016 -20.2641
LeftArm  28.9779 27.1735 -52.9218
LeftForeArm  3.90541 -30.9905 -6.57545
LeftHand  0.354604 -3.06862 -4.54148
RightShoulder  -0.137912 -6.16098 -3.35829
RightArm  -74.6909 40.7523 4.26716
RightForeArm  159.963 73.6421 143.455
RightHand  -0.166753 -5.0036 -37.4821
LeftUpLeg  -45.3155 -6.38383 -7.16631
LeftLeg  93.7907 -1.51549 11.6346
LeftFoot  7.029 1.48593 -9.44692
LeftToes  -2.42178e-010 -1.66495e-011 -2.88221e-011
95
root  3.22969 40.6832 -26.8956 62.6353 -81.7057 -69.2436
RightUpLeg  -3.12088 -3.25291 -0.0779015
RightLeg  16.5536 -5.05354 -2.05222
RightFoot  14.098 -2.90157 13.2345
RightToes  -5.28226e-011 1.30204e-014 -6.03759e-014
Spine  27.1668 4.74021 13.6022
Spine1  -4.90368 9.34687 -10.4629
HEad  -15.408 -13.9732 0.38465
LeftShoulder1  3.75851 -11.2688 -18.9136
LeftArm  32.4229 34.8909 -47.84
LeftForeArm  11.8265 -38.9059 -8.33354
LeftHand  0.443687 -0.956504 -7.88327
RightShoulder  0.115895 -9.86092 -11.7803
RightArm  -91.566 41.1539 -10.2069
RightForeArm  59.8551 75.4823 47.5725
RightHand  0.250763 -6.16773 -28.4025
LeftUpLeg  -41.482 -8.39089 -6.60666
LeftLeg  85.3451 0.250472 11.5857
LeftFoot  12.6629 2.04277 -9.93357
LeftToes  -2.42178e-010 -1.66495e-011 -2.88221e-011
96
root  3.02219 40.9796 -26.6792 71.3534 -81.2691 -76.7746
RightUpLeg  -4.99665 -2.50655 0.184263
RightLeg  16.4398 -3.91164 -1.78612
RightFoot  17.7268 -3.01215 12.0436
RightToes  -5.28226e-011 1.30204e-014 -6.03759e-014
Spine  26.6512 4.9731 18.6433
Spine1  -7.614 10.794 -15.2276
HEad  -11.2639 -15.2121 -0.523505
LeftShoulder1  3.44687 -11.6197 -16.0354
LeftArm  39.0828 40.1674 -42.1398
LeftForeArm  19.917 -48.604 -11.2784
LeftHand  0.308978 0.602906 -7.65955
RightShoulder  0.669968 -12.2581 -18.3536
RightArm  -104.316 40.4875 -24.6447
RightForeArm  23.3001 44.3707 7.94345
RightHand  -1.09987 0.0317517 -23.8924
LeftUpLeg  -35.7247 -9.99447 -5.97079
LeftLeg  75.2376 2.63129 12.2937
LeftFoot  19.576 3.08469 -11.5334
LeftToes  -2.42178e-010 -1.66495e-011 -2.88221e-011
97
root  2.67341 41.0746 -26.5375 81.5318 -81.4243 -85.7774
RightUpLeg  -6.33927 -1.98716 -0.35625
RightLeg  16.0151 -4.22511 -1.92295
RightFoot  20.0354 -3.44439 12.7042
RightToes  -5.28226e-011 1.30204e-014 -6.03759e-014
Spine  24.0709 6.17913 21.6462
Spine1  -7.06931 12.6411 -18.7733
HEad  -8.68069 -16.0624 -0.0669159
LeftShoulder1  2.973 -11.7163 -12.46
LeftArm  43.3847 42.9231 -36.5155
LeftForeArm  22.8389 -57.2008 -15.5626
LeftHand  0.349662 0.654399 -8.66592
RightShoulder  1.14853 -14.0584 -21.8931
RightArm  -105.996 41.0192 -35.5559
RightForeArm  17.2192 15.0377 0.135072
RightHand  -1.07815 1.52369 -15.5698
LeftUpLeg  -28.6459 -10.2988 -5.79689
LeftLeg  63.1914 6.99442 15.2254
LeftFoot  27.5899 4.47899 -13.1324
LeftToes  -2.42178e-010 -1.66495e-011 -2.88221e-011
98
root  2.21245 40.9531 -26.5337 87.7109 -81.7096 -90.7696
RightUpLeg  -6.66985 -2.14285 -1.06693
RightLeg  15.2149 -4.82192 -1.98376
RightFoot  19.7164 -4.00983 14.8876
RightToes  -5.28226e-011 1.30204e-014 -6.03759e-014
Spine  19.9933 7.649 21.283
Spine1  -5.2232 13.6622 -19.1104
HEad  -6.34872 -15.6749 0.899304
LeftShoulder1  2.48529 -11.4192 -9.24879
LeftArm  41.2704 45.6918 -32.2224
LeftForeArm  21.8453 -63.6395 -21.1346
LeftHand  0.525912 0.125233 -11.9008
RightShoulder  1.50308 -15.5902 -23.6311
RightArm  -87.5387 43.9478 -36.0469
RightForeArm  3.19465 3.30822 -4.05059
RightHand  0.027129 -3.58385 -1.60062
LeftUpLeg  -21.8552 -9.55655 -5.98397
LeftLeg  51.7372 11.4126 15.6866
LeftFoot  31.6911 5.32284 -13.9928
LeftToes  -2.42178e-010 -1.66495e-011 -2.88221e-011
